<svg width="20" height="20" viewBox="0 0 20 20" fill="none" xmlns="http://www.w3.org/2000/svg">
<mask id="path-1-inside-1_3430_112" fill="white">
<path d="M19.8142 6.8915L19.8068 6.85467C19.8019 6.83011 19.7995 6.80801 19.7921 6.78346C19.7872 6.76873 19.7823 6.75645 19.7798 6.74172C19.7725 6.72208 19.7676 6.69998 19.7577 6.68034C19.7528 6.6656 19.7455 6.65333 19.7381 6.63859C19.7283 6.61895 19.7185 6.60176 19.7086 6.58212C19.7013 6.56984 19.6939 6.55511 19.6841 6.54283C19.6644 6.51337 19.6423 6.48391 19.6202 6.45444C19.608 6.43971 19.5932 6.42252 19.5785 6.40779C19.5687 6.39551 19.5564 6.38569 19.5441 6.37587C19.5294 6.36114 19.5122 6.34886 19.4975 6.33659C19.4852 6.32676 19.4729 6.31694 19.4582 6.30712C19.4533 6.30467 19.4484 6.29975 19.4435 6.2973L10.4691 0.323415C10.3307 0.230937 10.1679 0.18158 10.0014 0.18158C9.83487 0.18158 9.6721 0.230937 9.53364 0.323415L0.554395 6.30221C0.549484 6.30467 0.544573 6.30958 0.539662 6.31203C0.527385 6.32185 0.515109 6.33167 0.500377 6.3415C0.483189 6.35377 0.468457 6.3685 0.453725 6.38078C0.441448 6.3906 0.431627 6.40288 0.41935 6.4127C0.404618 6.42743 0.389886 6.44217 0.377609 6.45935C0.353055 6.48636 0.333412 6.51583 0.313769 6.54775C0.306403 6.56002 0.296582 6.5723 0.289216 6.58703C0.279394 6.60422 0.269573 6.62386 0.259752 6.64351C0.252386 6.65578 0.247475 6.67051 0.240109 6.68525C0.232743 6.70489 0.225377 6.72699 0.218011 6.74663C0.2131 6.76136 0.208189 6.77364 0.205734 6.78837C0.200823 6.81047 0.195912 6.83502 0.191002 6.85958L0.183635 6.89641C0.178725 6.93324 0.17627 6.97007 0.17627 7.0069V12.9857C0.17627 13.0225 0.178725 13.0594 0.183635 13.0962L0.191002 13.133L0.205734 13.2042C0.210644 13.219 0.2131 13.2312 0.218011 13.246C0.225377 13.2681 0.232743 13.2877 0.240109 13.3073C0.245019 13.3221 0.252386 13.3344 0.259752 13.3491C0.269573 13.3687 0.276939 13.3859 0.289216 13.4056C0.296582 13.4178 0.303948 13.4326 0.313769 13.4448C0.326046 13.462 0.335868 13.4792 0.3506 13.4964L0.380064 13.5332C0.392341 13.548 0.407073 13.5652 0.421805 13.5799C0.431627 13.5922 0.443904 13.602 0.45618 13.6118C0.470912 13.6265 0.4881 13.6388 0.502832 13.6511C0.515109 13.6609 0.527386 13.6707 0.542118 13.6806C0.547028 13.683 0.551939 13.6879 0.55685 13.6904L9.53364 19.6692C9.67114 19.7625 9.83564 19.8116 10.0026 19.8116C10.1647 19.8116 10.3292 19.7649 10.4716 19.6692L19.4484 13.6904C19.4533 13.6879 19.4582 13.683 19.4631 13.6806C19.4754 13.6707 19.4877 13.6609 19.5024 13.6511C19.5196 13.6388 19.5343 13.6241 19.549 13.6118C19.5613 13.602 19.5711 13.5897 19.5834 13.5799C19.5981 13.5652 19.6129 13.5504 19.6252 13.5332L19.6546 13.4964L19.6914 13.4448C19.6988 13.4326 19.7086 13.4203 19.716 13.4056C19.7258 13.3859 19.7356 13.3687 19.7455 13.3491C19.7528 13.3368 19.7577 13.3221 19.7651 13.3073C19.7725 13.2877 19.7798 13.2656 19.7872 13.246C19.7921 13.2337 19.797 13.219 19.7995 13.2042C19.8068 13.1821 19.8093 13.1576 19.8142 13.133L19.8216 13.0962C19.8265 13.0594 19.8289 13.0225 19.8289 12.9857V7.00199C19.8216 6.96516 19.8191 6.92833 19.8142 6.8915ZM10.8448 2.59953L17.4595 7.00444L14.5057 8.97855L10.8473 6.53301V2.59953H10.8448ZM9.15551 2.59953V6.53301L5.49703 8.97855L2.54323 7.00444L9.15551 2.59953ZM1.86556 8.58078L3.97716 9.99261L1.86556 11.4044V8.58078ZM9.15551 17.3832L2.54323 12.9783L5.49703 11.0042L9.15551 13.4498V17.3832ZM10.0002 11.9864L7.01444 9.99261L10.0002 7.99641L12.9859 9.99016L10.0002 11.9864ZM10.8448 17.3832V13.4498L14.5033 11.0042L17.4571 12.9783L10.8448 17.3832ZM18.1348 11.402L16.0231 9.99016L18.1348 8.57833V11.402Z"/>
</mask>
<path d="M19.8142 6.8915L19.8068 6.85467C19.8019 6.83011 19.7995 6.80801 19.7921 6.78346C19.7872 6.76873 19.7823 6.75645 19.7798 6.74172C19.7725 6.72208 19.7676 6.69998 19.7577 6.68034C19.7528 6.6656 19.7455 6.65333 19.7381 6.63859C19.7283 6.61895 19.7185 6.60176 19.7086 6.58212C19.7013 6.56984 19.6939 6.55511 19.6841 6.54283C19.6644 6.51337 19.6423 6.48391 19.6202 6.45444C19.608 6.43971 19.5932 6.42252 19.5785 6.40779C19.5687 6.39551 19.5564 6.38569 19.5441 6.37587C19.5294 6.36114 19.5122 6.34886 19.4975 6.33659C19.4852 6.32676 19.4729 6.31694 19.4582 6.30712C19.4533 6.30467 19.4484 6.29975 19.4435 6.2973L10.4691 0.323415C10.3307 0.230937 10.1679 0.18158 10.0014 0.18158C9.83487 0.18158 9.6721 0.230937 9.53364 0.323415L0.554395 6.30221C0.549484 6.30467 0.544573 6.30958 0.539662 6.31203C0.527385 6.32185 0.515109 6.33167 0.500377 6.3415C0.483189 6.35377 0.468457 6.3685 0.453725 6.38078C0.441448 6.3906 0.431627 6.40288 0.41935 6.4127C0.404618 6.42743 0.389886 6.44217 0.377609 6.45935C0.353055 6.48636 0.333412 6.51583 0.313769 6.54775C0.306403 6.56002 0.296582 6.5723 0.289216 6.58703C0.279394 6.60422 0.269573 6.62386 0.259752 6.64351C0.252386 6.65578 0.247475 6.67051 0.240109 6.68525C0.232743 6.70489 0.225377 6.72699 0.218011 6.74663C0.2131 6.76136 0.208189 6.77364 0.205734 6.78837C0.200823 6.81047 0.195912 6.83502 0.191002 6.85958L0.183635 6.89641C0.178725 6.93324 0.17627 6.97007 0.17627 7.0069V12.9857C0.17627 13.0225 0.178725 13.0594 0.183635 13.0962L0.191002 13.133L0.205734 13.2042C0.210644 13.219 0.2131 13.2312 0.218011 13.246C0.225377 13.2681 0.232743 13.2877 0.240109 13.3073C0.245019 13.3221 0.252386 13.3344 0.259752 13.3491C0.269573 13.3687 0.276939 13.3859 0.289216 13.4056C0.296582 13.4178 0.303948 13.4326 0.313769 13.4448C0.326046 13.462 0.335868 13.4792 0.3506 13.4964L0.380064 13.5332C0.392341 13.548 0.407073 13.5652 0.421805 13.5799C0.431627 13.5922 0.443904 13.602 0.45618 13.6118C0.470912 13.6265 0.4881 13.6388 0.502832 13.6511C0.515109 13.6609 0.527386 13.6707 0.542118 13.6806C0.547028 13.683 0.551939 13.6879 0.55685 13.6904L9.53364 19.6692C9.67114 19.7625 9.83564 19.8116 10.0026 19.8116C10.1647 19.8116 10.3292 19.7649 10.4716 19.6692L19.4484 13.6904C19.4533 13.6879 19.4582 13.683 19.4631 13.6806C19.4754 13.6707 19.4877 13.6609 19.5024 13.6511C19.5196 13.6388 19.5343 13.6241 19.549 13.6118C19.5613 13.602 19.5711 13.5897 19.5834 13.5799C19.5981 13.5652 19.6129 13.5504 19.6252 13.5332L19.6546 13.4964L19.6914 13.4448C19.6988 13.4326 19.7086 13.4203 19.716 13.4056C19.7258 13.3859 19.7356 13.3687 19.7455 13.3491C19.7528 13.3368 19.7577 13.3221 19.7651 13.3073C19.7725 13.2877 19.7798 13.2656 19.7872 13.246C19.7921 13.2337 19.797 13.219 19.7995 13.2042C19.8068 13.1821 19.8093 13.1576 19.8142 13.133L19.8216 13.0962C19.8265 13.0594 19.8289 13.0225 19.8289 12.9857V7.00199C19.8216 6.96516 19.8191 6.92833 19.8142 6.8915ZM10.8448 2.59953L17.4595 7.00444L14.5057 8.97855L10.8473 6.53301V2.59953H10.8448ZM9.15551 2.59953V6.53301L5.49703 8.97855L2.54323 7.00444L9.15551 2.59953ZM1.86556 8.58078L3.97716 9.99261L1.86556 11.4044V8.58078ZM9.15551 17.3832L2.54323 12.9783L5.49703 11.0042L9.15551 13.4498V17.3832ZM10.0002 11.9864L7.01444 9.99261L10.0002 7.99641L12.9859 9.99016L10.0002 11.9864ZM10.8448 17.3832V13.4498L14.5033 11.0042L17.4571 12.9783L10.8448 17.3832ZM18.1348 11.402L16.0231 9.99016L18.1348 8.57833V11.402Z" fill="#2188FF" stroke="#2188FF" stroke-width="0.00223214" mask="url(#path-1-inside-1_3430_112)"/>
</svg>
